<svg preserveAspectRatio="none" overflow="visible" style="display: block;" width="18.5002" height="21.5002" viewBox="0 0 18.5002 21.5002" fill="none" xmlns="http://www.w3.org/2000/svg">
<g id="Group">
<path id="Vector" d="M11.75 3.75H9.75C6.922 3.75 5.507 3.75 4.629 4.629C3.75 5.507 3.75 6.922 3.75 9.75V14.75C3.75 17.578 3.75 18.993 4.629 19.871C5.507 20.75 6.922 20.75 9.75 20.75H11.093C11.911 20.75 12.319 20.75 12.687 20.598C13.055 20.446 13.343 20.157 13.922 19.578L16.578 16.922C17.157 16.343 17.445 16.055 17.598 15.687C17.75 15.319 17.75 14.911 17.75 14.093V9.75C17.75 6.922 17.75 5.507 16.871 4.629C15.993 3.75 14.578 3.75 11.75 3.75Z" stroke="#5F1BEE" stroke-width="1.5" stroke-linecap="round" stroke-linejoin="round"/>
<path id="Vector_2" d="M12.25 20.25V19.25C12.25 17.364 12.25 16.422 12.836 15.836C13.422 15.25 14.364 15.25 16.25 15.25H17.25M3.75 17.75C2.95435 17.75 2.19129 17.4339 1.62868 16.8713C1.06607 16.3087 0.750001 15.5457 0.750001 14.75V6.75C0.750001 3.922 0.750001 2.507 1.629 1.629C2.507 0.750001 3.922 0.750001 6.75 0.750001H11.75C12.5457 0.750001 13.3087 1.06607 13.8713 1.62868C14.4339 2.19129 14.75 2.95435 14.75 3.75M7.251 11.75H11.251M7.251 7.75H14.251" stroke="#5F1BEE" stroke-width="1.5" stroke-linecap="round" stroke-linejoin="round"/>
</g>
</svg>
